<?xml version="1.0" encoding="utf-8"?>
<svg xmlns="http://www.w3.org/2000/svg" xmlns:xlink="http://www.w3.org/1999/xlink" version= "1.1" width="1629px" height="1164px" viewBox="-275 482 1629 1164">
<g id="layer1">
<g style="fill:rgb(0,183,217); fill-opacity:1.0; stroke-linejoin: miter">
<path d="M1415.2396,480.05753L-307.4052,480.05942L-307.40256,1670.43L1415.2389,1670.428L1415.2396,480.05753 Z"/>
</g>
<g style="fill:rgb(171,193,206); fill-opacity:1.0; stroke-linejoin: miter">
<path d="M263.2312,1119.5637L261.72534,1096.3214Q258.02563,1026.0095,246.96469,960.96106Q235.68541,908.2281,231.30289,899.20197Q224.73608,879.5781,215.91997,861.56244Q207.03574,843.59546,195.90213,827.2367Q191.43445,818.27155,158.46289,781.0481Q124.520004,744.51904,50.82676,687.77277L224.55824,608.2254Q232.85246,619.3508,240.59346,633.91113Q261.62473,675.54395,265.22153,762.79803Q270.2856,872.2523,263.2312,1119.5637"/>
</g>
<g style="fill:rgb(0,0,0); fill-opacity:0.31764707; stroke-linejoin: miter">
<path d="M1107.4856,1568.0529L1102.5038,1569.5414Q1067.0819,1574.0546,895.2049,1576.8623Q722.13837,1579.6692,487.60693,1579.3208Q263.7772,1578.7626,129.57698,1575.4077Q-4.5148716,1572.0275,20.825645,1567.3079Q56.24653,1562.7952,228.12357,1559.9865Q401.1899,1557.1807,635.72125,1557.5289Q859.5514,1558.0864,993.75195,1561.4423Q1036.7515,1562.5269,1064.589,1563.8213L1087.9863,1565.1562Q1107.2675,1566.5371,1107.4856,1568.0529 Z"/>
</g>
<g style="fill:rgb(171,193,206); fill-opacity:1.0; stroke-linejoin: miter">
<path d="M353.4021,1022.3877L350.19754,1001.86145Q341.15906,939.6933,326.9425,882.82544Q313.645,836.9197,309.48956,829.2696Q302.72495,812.38684,294.37814,797.12335Q263.02863,733.98425,152.50291,656.6554L326.23444,577.10803Q330.59003,584.2807,334.85645,591.76807Q363.70612,636.4896,366.3601,728.59375Q368.63535,822.035,353.4021,1022.3877"/>
</g>
<g style="fill:rgb(99,112,121); fill-opacity:1.0; stroke-linejoin: miter">
<path d="M492.3456,897.81146L492.3456,897.8117L492.3456,897.81195L492.3456,897.8117L492.3456,897.81146L492.3456,897.8117L492.3456,897.81195Q492.3456,897.8117,492.3456,897.81146"/>
</g>
<g style="fill:rgb(215,237,249); fill-opacity:1.0; stroke-linejoin: miter">
<path d="M496.38455,654.35944L496.38455,654.35944L496.38455,654.3584L496.38455,654.35944"/>
</g>
<g style="fill:rgb(171,193,206); fill-opacity:1.0; stroke-linejoin: miter">
<path d="M699.57196,721.3596L715.5744,716.66895Q560.27625,811.463,518.5656,871.60675Q507.37238,886.37103,498.55695,901.97876Q492.98727,909.37054,476.38013,950.3163Q460.79977,991.6263,446.07117,1070.707Q441.80334,997.69666,442.63843,928.37915Q443.51013,882.39545,450.42975,840.78906Q457.47534,799.2736,473.0888,763.9592Q483.31058,736.39606,521.65106,682.5691Q538.25146,659.62244,582.02563,609.72784L699.57196,721.3596"/>
</g>
<g style="fill:rgb(215,237,249); fill-opacity:1.0; stroke-linejoin: miter">
<path d="M702.73615,950.03876C702.3307,948.5272,702.13745,946.96814,702.16077,945.38873C702.3026,936.0504,710.01447,928.5683,719.353,928.70996C723.2379,928.76776,727.01227,930.17444,729.9815,932.6693C732.622,934.8884,734.53125,937.87885,735.4348,941.1798C741.6924,940.6902,747.28235,944.74084,748.95996,950.55493C749.9095,950.3536,750.878,950.2596,751.85254,950.27466C759.03937,950.3834,764.79865,956.2766,764.6901,963.4637C764.5812,970.65137,758.6465,976.3673,751.45953,976.2583L705.9549,975.5704C698.7678,975.46173,693.0091,969.5679,693.11786,962.381C693.2065,956.5009,697.17456,951.53485,702.73615,950.03876 Z"/>
</g>
<g style="fill:rgb(215,237,249); fill-opacity:1.0; stroke-linejoin: miter">
<path d="M81.092865,1037.515C80.687355,1036.0037,80.49413,1034.4443,80.51764,1032.8651C80.659225,1023.52673,88.37118,1016.0448,97.70978,1016.1864C101.59467,1016.24426,105.36914,1017.65076,108.33821,1020.14575C110.978676,1022.3646,112.887856,1025.3553,113.791504,1028.6561C120.04906,1028.1665,125.63899,1032.2169,127.3168,1038.0311C128.26624,1037.8298,129.23459,1037.736,130.20921,1037.751C137.39603,1037.8597,143.15536,1043.753,143.04681,1050.94C142.93777,1058.1276,137.00314,1063.8438,129.81602,1063.7347L84.31152,1063.0469C77.12441,1062.9379,71.36573,1057.0443,71.47441,1049.857C71.563416,1043.977,75.53119,1039.0111,81.092865,1037.515 Z"/>
</g>
<g style="fill:rgb(215,237,249); fill-opacity:1.0; stroke-linejoin: miter">
<path d="M993.51227,1121.6525C993.107,1120.1405,992.9139,1118.5818,992.93726,1117.0023C993.0788,1107.6638,1000.79083,1100.1818,1010.1295,1100.3231C1014.01416,1100.3816,1017.7886,1101.788,1020.7577,1104.2828C1023.39844,1106.502,1025.3075,1109.4926,1026.211,1112.7931C1032.4689,1112.3035,1038.0586,1116.3544,1039.7365,1122.169C1040.6858,1121.9673,1041.6543,1121.8732,1042.6287,1121.8885C1049.8157,1121.9968,1055.5751,1127.8903,1055.4666,1135.0769C1055.3574,1142.2645,1049.4225,1147.9808,1042.2356,1147.872L996.7311,1147.184C989.5442,1147.0751,983.78546,1141.1815,983.8941,1133.9945C983.98285,1128.1147,987.95087,1123.1486,993.51227,1121.6525 Z"/>
</g>
<g style="fill:rgb(220,229,235); fill-opacity:1.0; stroke-linejoin: miter">
<path d="M229.74976,972.8635L259.6416,972.8643L289.53354,972.8648Q289.53354,1139.7561,289.53354,1306.6471Q259.6416,1306.648,229.74976,1306.6487Q229.74976,1139.7561,229.74976,972.8635"/>
</g>
<g style="fill:rgb(168,23,15); fill-opacity:1.0; stroke-linejoin: miter">
<path d="M229.74976,1000.8867Q229.74976,1030.4684,229.74976,1060.0499Q259.6416,1060.0499,289.53342,1060.0494Q289.53354,1030.4684,289.53354,1000.8872L261.4727,1000.88684L229.75021,1000.8867 Z"/>
</g>
<g style="fill:rgb(220,229,235); fill-opacity:1.0; stroke-linejoin: miter">
<path d="M329.88824,972.86365L359.7802,972.86444L389.6721,972.8649Q389.6721,1139.7562,389.6721,1306.6472Q359.7802,1306.6481,329.88824,1306.6489Q329.88824,1139.7562,329.88824,972.86365"/>
</g>
<g style="fill:rgb(168,23,15); fill-opacity:1.0; stroke-linejoin: miter">
<path d="M329.88824,1000.88684Q329.88824,1030.4685,329.88824,1060.05Q359.7801,1060.05,389.6719,1060.0496Q389.6721,1030.4685,389.6721,1000.8873L361.61118,1000.88696L329.8889,1000.88684 Z"/>
</g>
<g style="fill:rgb(220,229,235); fill-opacity:1.0; stroke-linejoin: miter">
<path d="M421.58133,972.86365L451.47324,972.86444L481.36514,972.8649Q481.36514,1139.7562,481.36514,1306.6472Q451.47324,1306.6481,421.58133,1306.6489Q421.58133,1139.7562,421.58133,972.86365"/>
</g>
<g style="fill:rgb(168,23,15); fill-opacity:1.0; stroke-linejoin: miter">
<path d="M421.58133,1000.88684Q421.58133,1030.4685,421.58133,1060.05Q451.4731,1060.05,481.36514,1060.0496Q481.36514,1030.4685,481.36514,1000.8873L453.30423,1000.88696L421.5819,1000.88684 Z"/>
</g>
<g style="fill:rgb(168,122,61); fill-opacity:1.0; stroke-linejoin: miter">
<path d="M435.652,1109.9696L435.652,1109.9696L435.652,1109.97L435.652,1109.9696L435.652,1109.9696L435.652,1109.9696L435.652,1109.97Q435.652,1109.9696,435.652,1109.9696"/>
</g>
<g style="fill:rgb(168,122,61); fill-opacity:1.0; stroke-linejoin: miter">
<path d="M195.99728,1119.6575L195.99728,1119.658L195.99728,1119.658L195.99728,1119.658L195.99728,1119.6575L195.99728,1119.658L195.99728,1119.658Q195.99728,1119.658,195.99728,1119.6575"/>
</g>
<g style="fill:rgb(171,193,206); fill-opacity:1.0; stroke-linejoin: miter">
<path d="M1082.2166,480.05783L374.2416,480.0586Q377.1624,520.24615,399.45935,551.2865Q418.5471,574.23663,424.23337,576.8072Q443.08527,591.2967,468.1661,599.05493Q447.7266,681.9223,496.8564,747.13055Q544.86456,810.2064,635.0357,812.3762Q654.1357,812.37634,674.5374,806.05664Q689.4726,803.0942,727.57605,780.383Q776.4482,741.87177,790.2518,691.1515Q813.43274,694.1384,845.0298,684.59064Q853.6591,682.27386,878.97363,666.092Q917.264,633.76697,925.2734,600.31635Q953.2828,607.30426,986.21875,599.3768Q1021.8041,587.0145,1035.5515,573.7189Q1082.605,533.3953,1082.2166,480.05783 Z"/>
</g>
<g style="fill:rgb(215,237,249); fill-opacity:1.0; stroke-linejoin: miter">
<path d="M1336.4688,480.0576L629.56396,480.05835Q626.3021,578.26434,724.3336,614.2641Q704.2822,692.58704,753.71136,759.9677Q799.0774,821.5071,890.4419,825.26654Q911.2786,825.2666,932.51794,818.6876Q948.3341,815.6038,986.24567,791.9609Q1020.92615,772.7951,1047.6716,701.8657Q1067.2753,704.80023,1101.1631,694.9838Q1109.8855,692.6114,1135.3613,676.08795Q1173.797,643.10345,1181.4153,609.1586Q1246.1857,620.2057,1291.1437,581.1655Q1337.9806,543.3188,1336.4688,480.0576 Z"/>
</g>
<g style="fill:rgb(215,237,249); fill-opacity:1.0; stroke-linejoin: miter">
<path d="M1415.2437,480.05753L713.8506,480.05823Q715.53705,517.5168,746.44604,553.4196Q772.621,584.1605,809.08234,592.69775Q800.62854,641.70087,805.08466,663.3105Q813.5132,707.9343,839.7872,740.09985Q863.8888,767.86993,892.85443,784.734Q918.70276,800.03436,975.19,803.69946Q1039.4524,798.3846,1078.6025,765.4961Q1108.646,743.34686,1132.4194,680.2994Q1150.6116,683.41156,1185.9105,673.4175Q1190.9366,673.0573,1220.1093,654.52136Q1263.4718,614.094,1266.163,587.5918Q1292.5157,594.02563,1325.9805,586.11694Q1343.713,582.6883,1372.7158,562.1165Q1390.3945,550.1416,1410.7936,515.13086Q1417.4901,506.9184,1415.2437,480.05753 Z"/>
</g>
<g style="fill:rgb(171,193,206); fill-opacity:1.0; stroke-linejoin: miter">
<path d="M1235.4216,480.0577L583.1407,480.0584Q613.9268,514.57043,649.0647,524.0894Q625.56006,603.2324,683.88525,679.61395Q709.08514,708.5709,745.15045,724.10864Q775.75305,737.43005,814.32654,737.4173Q865.7036,735.6422,908.4748,705.4175Q927.1594,692.797,941.61584,673.76874Q953.64716,661.2996,971.1504,616.18616Q994.3314,619.173,1025.9285,609.62524Q1034.5577,607.3086,1059.8724,591.12646Q1087.8738,573.4184,1106.1722,525.3508Q1132.0459,532.7635,1173.5425,523.0849Q1218.9325,504.4038,1235.4216,480.0577 Z"/>
</g>
<g style="fill:rgb(215,237,249); fill-opacity:1.0; stroke-linejoin: miter">
<path d="M348.12228,480.05865L-307.4052,480.05936L-307.4026,586.36053Q-260.85565,622.133,-201.9544,609.633Q-162.5228,706.3706,-66.93209,700.4687Q-52.612896,751.16003,-4.256934,789.69934Q35.01892,817.59625,88.28161,821.6927Q139.5359,818.90594,168.83728,804.5555Q206.28192,783.92474,231.2024,750.6406Q276.39185,673.83545,255.15262,608.371Q281.79385,602.4559,316.77878,570.71674Q353.74335,515.3911,348.12228,480.05865 Z"/>
</g>
<g style="fill:rgb(215,237,249); fill-opacity:1.0; stroke-linejoin: miter">
<path d="M128.70375,480.05884L-307.40518,480.05942L-307.4026,669.0411Q-296.62943,670.2134,-284.01593,668.9839Q-269.38058,708.43054,-258.04315,721.23737Q-244.69942,739.7476,-226.62825,754.43225Q-203.17876,770.3347,-181.46793,779.16956Q-175.76855,782.4825,-149.87965,788.446Q-139.67621,790.2129,-129.90747,790.2129Q-38.27085,786.3548,6.294405,729.07245Q58.79284,664.9971,38.068905,576.8862Q108.7786,554.562,128.70375,480.05884 Z"/>
</g>
<g style="fill:rgb(171,193,206); fill-opacity:1.0; stroke-linejoin: miter">
<path d="M353.54382,480.0586L-307.40518,480.05942L-307.4026,519.5491Q-292.76236,532.9369,-285.83725,536.87634Q-238.56519,565.8157,-186.90665,554.616Q-171.88524,599.92804,-133.43597,625.6936Q-118.66856,635.67377,-100.48724,640.66376Q-86.719246,645.75476,-51.884117,645.45197Q-21.088608,717.29,3.1145515,729.8907Q37.023354,752.3255,48.442596,754.9483Q76.09681,765.33466,107.037025,766.7147Q187.52081,765.8735,238.87057,704.06396Q267.12646,665.79254,275.16266,624.08844Q280.81595,600.05817,270.20084,553.35364Q293.6612,546.29175,327.13712,518.36066Q344.59738,501.50018,353.54382,480.0586 Z"/>
</g>
<g style="fill:rgb(215,237,249); fill-opacity:1.0; stroke-linejoin: miter">
<path d="M871.7825,480.0581L165.4427,480.05884Q169.49019,522.72424,191.93388,547.4456Q216.20024,581.10913,260.32828,593.8076Q240.277,672.1305,289.70612,739.5114Q335.07178,801.05066,426.43723,804.80994Q447.27365,804.80994,468.51288,798.2311Q484.329,795.1473,522.24023,771.5044Q556.9209,752.339,583.6663,681.40924Q603.2699,684.3439,637.1576,674.52747Q645.88025,672.15515,671.356,655.63165Q709.79144,622.6467,717.41003,588.7023Q765.84045,600.9543,817.5466,567.94135Q862.1848,532.5398,871.7825,480.0581 Z"/>
</g>
<g style="fill:rgb(165,179,188); fill-opacity:1.0; stroke-linejoin: miter">
<path d="M163.59885,1290.8226L553.74725,1290.8236L943.8956,1290.8247Q943.8955,1425.7565,943.8955,1560.6891Q553.74713,1560.6898,163.59888,1560.6904Q163.59888,1425.7563,163.59885,1290.8226"/>
</g>
<g style="fill:rgb(99,112,121); fill-opacity:1.0; stroke-linejoin: miter">
<path d="M185.47702,1454.219L344.04102,1454.2194L502.60498,1454.22Q502.60498,1498.4077,502.60498,1542.5957Q344.04102,1542.596,185.47702,1542.5961Q185.47702,1498.4076,185.47702,1454.219"/>
</g>
<g style="fill:rgb(99,112,121); fill-opacity:1.0; stroke-linejoin: miter">
<path d="M807.1074,1448.2096L867.38055,1448.2098L927.6535,1448.2101Q927.6535,1494.9935,927.6535,1541.777Q867.38055,1541.7773,807.1074,1541.7776Q807.1074,1494.9935,807.1074,1448.2096"/>
</g>
<g style="fill:rgb(99,112,121); fill-opacity:1.0; stroke-linejoin: miter">
<path d="M154.95915,1261.124L556.9231,1261.1245L958.8872,1261.1248Q958.8872,1290.6788,958.8872,1320.2329Q556.9231,1320.2332,154.95915,1320.2334Q154.95915,1290.6786,154.95915,1261.124"/>
</g>
<g style="fill:rgb(161,217,255); fill-opacity:1.0; stroke-linejoin: miter">
<path d="M201.69885,1350.1215L233.52107,1350.122L265.3433,1350.1224Q265.3434,1376.0789,265.3434,1402.0356Q233.52116,1402.0359,201.69885,1402.0365Q201.69885,1376.0789,201.69885,1350.1215"/>
</g>
<g style="fill:rgb(99,112,121); fill-opacity:1.0; stroke-linejoin: miter">
<path d="M201.69885,1372.2811Q201.69885,1375.3325,201.69885,1378.3838L230.03378,1378.3845L236.13647,1378.384Q236.13647,1378.384,236.13647,1378.3838L236.13684,1378.384L265.3434,1378.384Q265.3434,1375.3325,265.3434,1372.2811L236.137,1372.2816Q236.137,1372.2811,236.137,1372.2814L236.13618,1372.2816L230.03416,1372.2819L230.03378,1372.2811L201.69885,1372.2811 Z"/>
</g>
<g style="fill:rgb(99,112,121); fill-opacity:1.0; stroke-linejoin: miter">
<path d="M230.03378,1350.122Q230.03378,1376.0789,230.03387,1402.0359Q233.08485,1402.0359,236.13588,1402.0359Q236.13675,1376.0789,236.13666,1350.122L233.52107,1350.1224L230.03407,1350.122 Z"/>
</g>
<g style="fill:rgb(161,217,255); fill-opacity:1.0; stroke-linejoin: miter">
<path d="M288.511,1349.0554L320.3334,1349.0558L352.15546,1349.0564Q352.15558,1375.0132,352.15558,1400.9695Q320.33347,1400.97,288.5111,1400.9698Q288.51105,1375.0128,288.511,1349.0554"/>
</g>
<g style="fill:rgb(99,112,121); fill-opacity:1.0; stroke-linejoin: miter">
<path d="M288.5111,1371.2147Q288.51105,1374.2665,288.51105,1377.318L316.84598,1377.3187L322.9487,1377.3182Q322.9487,1377.3182,322.9487,1377.3182L322.949,1377.3182L352.15558,1377.3182Q352.15558,1374.2666,352.15558,1371.2148L322.94913,1371.216Q322.94913,1371.2153,322.94913,1371.2153L322.94836,1371.2153L316.84637,1371.216L316.84598,1371.2148L288.5111,1371.2147 Z"/>
</g>
<g style="fill:rgb(99,112,121); fill-opacity:1.0; stroke-linejoin: miter">
<path d="M316.84598,1349.0558Q316.84598,1375.0132,316.8461,1400.97Q319.89713,1400.97,322.94815,1400.97Q322.94894,1375.013,322.94882,1349.0558L320.3334,1349.0564L316.84622,1349.0558 Z"/>
</g>
<g style="fill:rgb(161,217,255); fill-opacity:1.0; stroke-linejoin: miter">
<path d="M365.7365,1347.4568L397.5589,1347.4574L429.38104,1347.4574Q429.38116,1373.4141,429.38116,1399.3707Q397.55902,1399.371,365.73672,1399.3712Q365.73666,1373.4141,365.7365,1347.4568"/>
</g>
<g style="fill:rgb(99,112,121); fill-opacity:1.0; stroke-linejoin: miter">
<path d="M365.73672,1369.6161Q365.73666,1372.6675,365.73666,1375.7191L394.07162,1375.7196L400.1743,1375.7194Q400.1743,1375.7191,400.1743,1375.7191L400.17462,1375.7194L429.38116,1375.7191Q429.38116,1372.6675,429.38116,1369.6163L400.17474,1369.6161Q400.17474,1369.6163,400.17474,1369.6163L400.17395,1369.6166L394.072,1369.617L394.07162,1369.6161L365.73672,1369.6161 Z"/>
</g>
<g style="fill:rgb(99,112,121); fill-opacity:1.0; stroke-linejoin: miter">
<path d="M394.07156,1347.4568Q394.07162,1373.4141,394.0717,1399.371Q397.12274,1399.371,400.1737,1399.371Q400.17456,1373.4141,400.17444,1347.4574L397.5589,1347.4579L394.07187,1347.4568 Z"/>
</g>
<g style="fill:rgb(161,217,255); fill-opacity:1.0; stroke-linejoin: miter">
<path d="M452.62994,1347.7681L484.45227,1347.7688L516.2742,1347.769Q516.2745,1373.7257,516.2745,1399.6823Q484.45227,1399.6825,452.63,1399.6829Q452.63,1373.7257,452.62994,1347.7681"/>
</g>
<g style="fill:rgb(99,112,121); fill-opacity:1.0; stroke-linejoin: miter">
<path d="M452.63,1369.9277Q452.63,1372.9791,452.63,1376.0304L480.96484,1376.0309L487.06763,1376.0309Q487.06763,1376.0306,487.06763,1376.0304L487.068,1376.0309L516.2745,1376.0306Q516.2745,1372.9791,516.2745,1369.928L487.068,1369.9277Q487.068,1369.928,487.068,1369.928L487.0673,1369.9282L480.96524,1369.9285L480.96484,1369.9277L452.63,1369.9277 Z"/>
</g>
<g style="fill:rgb(99,112,121); fill-opacity:1.0; stroke-linejoin: miter">
<path d="M480.96484,1347.7686Q480.96484,1373.7257,480.96503,1399.6825Q484.01596,1399.6825,487.0671,1399.6825Q487.0678,1373.7257,487.0678,1347.7688L484.45227,1347.7693L480.96503,1347.7686 Z"/>
</g>
<g style="fill:rgb(161,217,255); fill-opacity:1.0; stroke-linejoin: miter">
<path d="M539.442,1346.702L571.2644,1346.7025L603.0867,1346.7029Q603.0867,1372.6597,603.0867,1398.616Q571.26465,1398.6165,539.442,1398.6165Q539.442,1372.6592,539.442,1346.702"/>
</g>
<g style="fill:rgb(99,112,121); fill-opacity:1.0; stroke-linejoin: miter">
<path d="M539.442,1368.8613Q539.442,1371.9133,539.442,1374.9644L567.77704,1374.965L573.8796,1374.9646Q573.8796,1374.9644,573.8796,1374.9644L573.8802,1374.9646L603.0867,1374.9644Q603.0867,1371.9133,603.0867,1368.8616L573.8802,1368.8616Q573.8802,1368.8616,573.8802,1368.8616L573.87946,1368.8618L567.7774,1368.862L567.77704,1368.8616L539.442,1368.8613 Z"/>
</g>
<g style="fill:rgb(99,112,121); fill-opacity:1.0; stroke-linejoin: miter">
<path d="M567.77704,1346.7025Q567.77704,1372.6597,567.7773,1398.6165Q570.82806,1398.6165,573.8792,1398.6165Q573.88,1372.6592,573.88,1346.7025L571.2644,1346.7031L567.7774,1346.7025 Z"/>
</g>
<g style="fill:rgb(161,217,255); fill-opacity:1.0; stroke-linejoin: miter">
<path d="M616.6677,1345.1033L648.4898,1345.1033L680.312,1345.1039Q680.312,1371.0605,680.31244,1397.0172Q648.49005,1397.0175,616.66785,1397.018Q616.6677,1371.0603,616.6677,1345.1033"/>
</g>
<g style="fill:rgb(99,112,121); fill-opacity:1.0; stroke-linejoin: miter">
<path d="M616.66785,1367.2626Q616.6677,1370.314,616.6677,1373.3656L645.0026,1373.3661L651.1054,1373.3658Q651.1054,1373.3656,651.1054,1373.3656L651.1058,1373.3658L680.312,1373.3656Q680.312,1370.314,680.312,1367.2628L651.1058,1367.2634Q651.1058,1367.2628,651.1058,1367.2631L651.10486,1367.2631L645.003,1367.2637L645.0026,1367.2628L616.66785,1367.2626 Z"/>
</g>
<g style="fill:rgb(99,112,121); fill-opacity:1.0; stroke-linejoin: miter">
<path d="M645.0026,1345.1033Q645.0026,1371.0605,645.0026,1397.0175Q648.0537,1397.0175,651.10486,1397.0175Q651.1054,1371.0603,651.1054,1345.1033L648.4898,1345.1044L645.003,1345.1033 Z"/>
</g>
<g style="fill:rgb(0,0,0); fill-opacity:1.0; stroke-linejoin: miter">
<path d="M156.86942,1540.7125L553.22,1540.7126L949.5708,1540.7134Q949.5708,1554.1028,949.5708,1567.4922Q553.22,1567.4929,156.86942,1567.4928Q156.86942,1554.1027,156.86942,1540.7125"/>
</g>
<g style="fill:rgb(255,255,255); fill-opacity:1.0; stroke-linejoin: miter">
<path d="M250.00513,1539.7952L250.00513,1539.796L273.71622,1539.9119L273.60043,1563.4921L249.88934,1563.3757 Z M309.28293,1540.0864L309.28293,1540.087L332.99414,1540.2031L332.87836,1563.7832L309.16714,1563.6665 Z M368.56085,1540.3777L368.56085,1540.3787L392.272,1540.4943L392.15628,1564.0742L368.44513,1563.9578 Z M427.8387,1540.6687L427.8387,1540.6696L451.5499,1540.785L451.4341,1564.3654L427.72293,1564.249 Z M487.1165,1540.9601L487.1165,1540.9606L510.8277,1541.0765L510.71185,1564.6566L487.00076,1564.54 Z M546.39453,1541.2511L546.39453,1541.2516L570.1058,1541.3677L569.9898,1564.9478L546.27893,1564.8312 Z M605.67255,1541.5421L605.67255,1541.5426L629.38354,1541.6587L629.26794,1565.239L605.5567,1565.1223 Z M664.9503,1541.8335L664.9503,1541.834L688.66156,1541.9497L688.5456,1565.5298L664.83435,1565.4135 Z M724.2283,1542.1245L724.2283,1542.125L747.93933,1542.2408L747.8234,1565.8209L724.1123,1565.7046 Z M783.506,1542.4155L783.506,1542.416L807.21716,1542.5319L807.1012,1566.1119L783.3904,1565.9956 Z M842.78394,1542.7069L842.78394,1542.7074L866.49506,1542.8232L866.37933,1566.4031L842.6681,1566.2867 Z M902.0617,1542.9979L902.0617,1542.9984L925.77295,1543.1143L925.657,1566.6942L901.9459,1566.5779 Z M190.72722,1539.5042L190.72722,1539.5046L214.43839,1539.6207L214.32268,1563.2009L190.61147,1563.0841 Z"/>
</g>
<g style="fill:rgb(0,0,0); fill-opacity:0.6862745; stroke-linejoin: miter">
<path d="M864.56085,1448.0206L868.2098,1448.0212L868.2098,1541.066L864.56085,1541.0665L864.56085,1448.0206"/>
</g>
<g style="fill:rgb(31,35,38); fill-opacity:1.0; stroke-linejoin: miter">
<path d="M867.1973,1478.4353L869.29736,1478.4358L871.3975,1478.4353Q871.3975,1496.3683,871.3975,1514.3018Q869.29736,1514.3018,867.1973,1514.3022Q867.1973,1496.3683,867.1973,1478.4353"/>
</g>
</g>
</svg>